<svg xmlns="http://www.w3.org/2000/svg" width="641.321" height="598.105" preserveAspectRatio="xMidYMid" viewBox="-30.5 0 254.123 236.999"><path fill="#ff0101" d="M66.1 111.278C42.727 97.783 31.33 70.271 38.317 44.201 45.3 18.131 68.926 0 95.918 0c26.99 0 50.616 18.129 57.602 44.2 6.985 26.07-4.41 53.583-27.785 67.078L107.78 80.181a23.724 23.724 0 1 0-23.724 0z"/><path fill="#0101ff" d="M193.802 125.715c23.374 13.496 34.77 41.008 27.784 67.08-6.985 26.07-30.61 44.199-57.601 44.199s-50.617-18.129-57.602-44.2c-6.986-26.07 4.41-53.583 27.785-67.079l17.955 31.1a23.724 23.724 0 1 0 23.724 0z"/><path fill="#01ff01" d="M88.769 177.36c0 26.99-18.13 50.616-44.2 57.602s-53.583-4.41-67.078-27.785-9.61-52.9 9.477-71.985c19.086-19.085 48.61-22.972 71.984-9.477l-17.955 31.1a23.724 23.724 0 1 0 11.862 20.545z"/></svg>